<svg xmlns="http://www.w3.org/2000/svg" viewBox="0 0 460 300" font-family="Helvetica, Arial, sans-serif">
<text x="8.0" y="16.0" font-size="10.5" text-anchor="start" fill="#1A1A1A" font-weight="bold">(a)</text>
<text x="92.0" y="43.0" font-size="9.5" text-anchor="end" fill="#1A1A1A">Recall@100</text>
<line x1="181.0" y1="40.0" x2="292.0" y2="40.0" stroke="#CFCFCF" stroke-width="1.2"/>
<circle cx="181.0" cy="40" r="3.4" fill="none" stroke="#1A1A1A" stroke-width="1.2"/>
<circle cx="292.0" cy="40" r="3.4" fill="#2166AC"/>
<text x="181.0" y="32.0" font-size="8.2" text-anchor="middle" fill="#8C8C8C">0.331</text>
<text x="292.0" y="32.0" font-size="8.2" text-anchor="middle" fill="#2166AC">0.442</text>
<text x="92.0" y="73.0" font-size="9.5" text-anchor="end" fill="#1A1A1A">nDCG@100</text>
<line x1="129.0" y1="70.0" x2="216.0" y2="70.0" stroke="#CFCFCF" stroke-width="1.2"/>
<circle cx="129.0" cy="70" r="3.4" fill="none" stroke="#1A1A1A" stroke-width="1.2"/>
<circle cx="216.0" cy="70" r="3.4" fill="#2166AC"/>
<text x="129.0" y="62.0" font-size="8.2" text-anchor="middle" fill="#8C8C8C">0.279</text>
<text x="216.0" y="62.0" font-size="8.2" text-anchor="middle" fill="#2166AC">0.366</text>
<line x1="100.0" y1="88.0" x2="300.0" y2="88.0" stroke="#1A1A1A" stroke-width="0.9"/>
<line x1="100.0" y1="88.0" x2="100.0" y2="92.0" stroke="#1A1A1A" stroke-width="0.9"/>
<text x="100.0" y="103.0" font-size="9.0" text-anchor="middle" fill="#1A1A1A">0.25</text>
<line x1="150.0" y1="88.0" x2="150.0" y2="92.0" stroke="#1A1A1A" stroke-width="0.9"/>
<text x="150.0" y="103.0" font-size="9.0" text-anchor="middle" fill="#1A1A1A">0.30</text>
<line x1="200.0" y1="88.0" x2="200.0" y2="92.0" stroke="#1A1A1A" stroke-width="0.9"/>
<text x="200.0" y="103.0" font-size="9.0" text-anchor="middle" fill="#1A1A1A">0.35</text>
<line x1="250.0" y1="88.0" x2="250.0" y2="92.0" stroke="#1A1A1A" stroke-width="0.9"/>
<text x="250.0" y="103.0" font-size="9.0" text-anchor="middle" fill="#1A1A1A">0.40</text>
<line x1="300.0" y1="88.0" x2="300.0" y2="92.0" stroke="#1A1A1A" stroke-width="0.9"/>
<text x="300.0" y="103.0" font-size="9.0" text-anchor="middle" fill="#1A1A1A">0.45</text>
<text x="200.0" y="117.0" font-size="9.5" text-anchor="middle" fill="#1A1A1A">Metric value</text>
<circle cx="336" cy="37" r="3.4" fill="none" stroke="#1A1A1A" stroke-width="1.2"/>
<text x="344.0" y="40.0" font-size="9.0" text-anchor="start" fill="#1A1A1A">comparator</text>
<circle cx="336" cy="52" r="3.4" fill="#2166AC"/>
<text x="344.0" y="55.0" font-size="9.0" text-anchor="start" fill="#1A1A1A">selected</text>
<text x="8.0" y="148.0" font-size="10.5" text-anchor="start" fill="#1A1A1A" font-weight="bold">(b)</text>
<text x="92.0" y="171.0" font-size="9.5" text-anchor="end" fill="#1A1A1A">Recall@100</text>
<line x1="256.9" y1="168.0" x2="284.6" y2="168.0" stroke="#1A1A1A" stroke-width="1.1"/>
<line x1="256.9" y1="164.5" x2="256.9" y2="171.5" stroke="#1A1A1A" stroke-width="1.1"/>
<line x1="284.6" y1="164.5" x2="284.6" y2="171.5" stroke="#1A1A1A" stroke-width="1.1"/>
<circle cx="270.8" cy="168" r="3.4" fill="#D6733A"/>
<text x="292.6" y="171.0" font-size="8.2" text-anchor="start" fill="#1A1A1A">+0.111 [0.102, 0.120]</text>
<text x="92.0" y="197.0" font-size="9.5" text-anchor="end" fill="#1A1A1A">nDCG@100</text>
<line x1="221.5" y1="194.0" x2="244.6" y2="194.0" stroke="#1A1A1A" stroke-width="1.1"/>
<line x1="221.5" y1="190.5" x2="221.5" y2="197.5" stroke="#1A1A1A" stroke-width="1.1"/>
<line x1="244.6" y1="190.5" x2="244.6" y2="197.5" stroke="#1A1A1A" stroke-width="1.1"/>
<circle cx="232.3" cy="194" r="3.4" fill="#D6733A"/>
<text x="252.6" y="197.0" font-size="8.2" text-anchor="start" fill="#1A1A1A">+0.086 [0.079, 0.094]</text>
<line x1="100.0" y1="160.0" x2="100.0" y2="212.0" stroke="#8C8C8C" stroke-width="0.8" stroke-dasharray="3,2"/>
<line x1="100.0" y1="212.0" x2="300.0" y2="212.0" stroke="#1A1A1A" stroke-width="0.9"/>
<line x1="100.0" y1="212.0" x2="100.0" y2="216.0" stroke="#1A1A1A" stroke-width="0.9"/>
<text x="100.0" y="227.0" font-size="9.0" text-anchor="middle" fill="#1A1A1A">0.00</text>
<line x1="161.5" y1="212.0" x2="161.5" y2="216.0" stroke="#1A1A1A" stroke-width="0.9"/>
<text x="161.5" y="227.0" font-size="9.0" text-anchor="middle" fill="#1A1A1A">0.04</text>
<line x1="223.1" y1="212.0" x2="223.1" y2="216.0" stroke="#1A1A1A" stroke-width="0.9"/>
<text x="223.1" y="227.0" font-size="9.0" text-anchor="middle" fill="#1A1A1A">0.08</text>
<line x1="284.6" y1="212.0" x2="284.6" y2="216.0" stroke="#1A1A1A" stroke-width="0.9"/>
<text x="284.6" y="227.0" font-size="9.0" text-anchor="middle" fill="#1A1A1A">0.12</text>
<text x="200.0" y="241.0" font-size="9.5" text-anchor="middle" fill="#1A1A1A">Paired difference, 95% bootstrap CI</text>
<text x="8.0" y="272.0" font-size="10.5" text-anchor="start" fill="#1A1A1A" font-weight="bold">(c)</text>
<rect x="40.0" y="264" width="283.9" height="11" fill="#2166AC" stroke="#2166AC" stroke-width="0.8"/>
<rect x="323.9" y="264" width="72.5" height="11" fill="#FFFFFF" stroke="#8C8C8C" stroke-width="0.8"/>
<rect x="396.4" y="264" width="43.6" height="11" fill="#D6733A" stroke="#D6733A" stroke-width="0.8"/>
<rect x="40" y="283" width="8" height="8" fill="#2166AC" stroke="#2166AC" stroke-width="0.8"/>
<text x="53.0" y="290.0" font-size="9.0" text-anchor="start" fill="#1A1A1A">wins 619 (71.0%)</text>
<rect x="180" y="283" width="8" height="8" fill="#FFFFFF" stroke="#8C8C8C" stroke-width="0.8"/>
<text x="193.0" y="290.0" font-size="9.0" text-anchor="start" fill="#1A1A1A">ties 158 (18.1%)</text>
<rect x="320" y="283" width="8" height="8" fill="#D6733A" stroke="#D6733A" stroke-width="0.8"/>
<text x="333.0" y="290.0" font-size="9.0" text-anchor="start" fill="#1A1A1A">losses 95 (10.9%)</text>
</svg>